<?xml version="1.0" encoding="UTF-8"?>
<svg xmlns="http://www.w3.org/2000/svg" xmlns:xlink="http://www.w3.org/1999/xlink" version="1.1" id="Foreground" x="0px" y="0px" viewBox="0 0 27.06 10.65" style="enable-background:new 0 0 27.06 10.65;" xml:space="preserve">
<style type="text/css">
	.st0{fill-rule:evenodd;clip-rule:evenodd;fill:red;}
</style>
<g>
	<g>
		<path class="st0" d="M1.32,0h4.07c0,0,0.32-0.05,0.76,0.79l2.08,3.69c0,0,0.27,0.48,0.64,0.52h1.1L8.66,6.74l-0.71,0    c0,0-0.58,0.01-1.03-0.88l-2.1-3.79c0,0-0.15-0.32-0.59-0.3H0L1.32,0z"></path>
		<path class="st0" d="M2.35,2.09h2.08l2.46,4.36c0,0,0.21,0.5,0.79,0.62l0.73,0L7.23,8.65H6.47c0,0-0.5,0.02-0.82-0.62L2.35,2.09z"></path>
		<path class="st0" d="M0,2.08h2.01l3.6,6.46c0,0,0.16,0.37,0.56,0.41h0.84l-1.26,1.69H5.03c0,0-0.34,0-0.63-0.58L0,2.08z"></path>
	</g>
	<path class="st0" d="M21.46,5h-4.38c0,0-0.49-0.02-0.85,0.45l-3.42,4.57c0,0-0.52,0.6,0.4,0.6h4.04l1.3-1.73l-1.86,0   c0,0-0.39,0.04-0.14-0.29l1.3-1.75c0,0,0.12-0.12,0.51-0.12h1.8L21.46,5z"></path>
	<path class="st0" d="M23.38,6.75l0.1-0.14l-0.53,0c0,0-0.08-0.02-0.2,0.14c0,0-0.22,0.28,0,0.28l1.77,0c0,0,0.54-0.02,0.24,0.39   l-2.13,2.84c0,0-0.21,0.38-0.87,0.38h-3.32c0,0-0.64-0.05-0.39-0.43l0.98-1.31h2.09l-0.15,0.22h0.56c0,0,0.05,0.01,0.17-0.15   c0,0,0.3-0.35,0.1-0.36h-1.98c0,0-0.46-0.08-0.25-0.45l2.2-2.9c0,0,0.15-0.27,0.51-0.27h3.61c0,0,0.7-0.02,0.33,0.48l-0.96,1.28   L23.38,6.75z"></path>
	<polygon class="st0" points="10.44,5 9.14,6.74 10.74,6.74 7.83,10.63 10.29,10.63 13.2,6.74 14.8,6.74 16.1,5  "></polygon>
	<g>
		<g>
			<path class="st0" d="M26.07,3.7c-0.1,0.1-0.15,0.23-0.15,0.37c0,0.15,0.05,0.27,0.15,0.38c0.1,0.1,0.23,0.16,0.38,0.16     c0.15,0,0.27-0.05,0.38-0.16c0.1-0.1,0.15-0.23,0.15-0.38c0-0.15-0.05-0.27-0.15-0.37c-0.1-0.1-0.23-0.16-0.38-0.16     C26.3,3.54,26.17,3.59,26.07,3.7z M26.88,4.51c-0.12,0.12-0.27,0.18-0.44,0.18c-0.17,0-0.32-0.06-0.44-0.18     c-0.12-0.12-0.18-0.27-0.18-0.44c0-0.17,0.06-0.31,0.18-0.43c0.12-0.12,0.26-0.18,0.43-0.18c0.17,0,0.32,0.06,0.44,0.18     C27,3.76,27.06,3.9,27.06,4.07C27.06,4.24,27,4.39,26.88,4.51z M26.56,3.84c-0.03-0.02-0.08-0.03-0.14-0.03h-0.1v0.24h0.11     c0.05,0,0.09,0,0.11-0.01c0.05-0.02,0.07-0.05,0.07-0.11C26.6,3.89,26.59,3.86,26.56,3.84z M26.43,3.73     c0.08,0,0.15,0.01,0.18,0.02c0.07,0.03,0.11,0.09,0.11,0.17c0,0.06-0.02,0.1-0.07,0.13c-0.02,0.02-0.06,0.03-0.1,0.03     c0.05,0.01,0.09,0.03,0.12,0.07c0.02,0.04,0.04,0.07,0.04,0.1v0.05c0,0.02,0,0.03,0,0.05c0,0.02,0,0.03,0.01,0.04l0,0.01h-0.11     c0,0,0,0,0-0.01c0,0,0,0,0-0.01l0-0.02V4.32c0-0.08-0.02-0.13-0.06-0.15c-0.03-0.01-0.07-0.02-0.13-0.02h-0.09v0.27h-0.12V3.73     H26.43z"></path>
		</g>
	</g>
</g>
</svg>
